<?xml version="1.0" encoding="utf-8"?>
<!-- Generator: Adobe Illustrator 22.0.1, SVG Export Plug-In . SVG Version: 6.00 Build 0)  -->
<svg version="1.1" id="Layer_1" xmlns="http://www.w3.org/2000/svg" xmlns:xlink="http://www.w3.org/1999/xlink" x="0px" y="0px"
	 viewBox="0 0 485 485" style="enable-background:new 0 0 485 485;" xml:space="preserve">
<style type="text/css">
	.st0{fill:#2EBC19;}
	.st1{fill:#FFFFFF;}
	.st2{fill:none;stroke:#FFFFFF;stroke-miterlimit:10;}
</style>
<g>
	<path class="st0" d="M1408.7,116.6l-25.2-38.4c-2.1-3.2-5.5-5.1-9.3-5.1c0,0,0,0-0.1,0c-3.8,0-7.2,1.9-9.3,5l-25.2,38.4
		c-2.2,3.4-2.4,7.8-0.5,11.3c1.9,3.6,5.5,5.9,9.6,6.1l14.5,0c-4.2,22.5-16,42.9-33.4,57.8c-17.5,15-39.5,23.6-60.3,23.6
		c-13.4,0-27.6-3.7-41-10.6c-6.4-3.4-12.5-7.4-18.1-12.1c0.4,0.4-0.1-0.1,0,0c0,0,0,0,0,0c-0.6-0.6-1.6-1.3-1.4-1.2
		c-1.7-1.2-3.8-2-6-2c-5.6,0-10.2,4.6-10.2,10.2c0,3,1.3,5.8,3.4,7.6l0,0c0,0,0.1,0.1,0.1,0.1c0.1,0.1,0.1,0.1,0.2,0.2
		c6.9,5.9,14.5,11,22.5,15.1c16.2,8.4,33.6,12.9,50.4,12.9c25.7,0,52.5-10.4,73.6-28.5c21.9-18.8,36.3-44.7,40.8-73.2l15.6,0l0.2,0
		c4-0.2,7.7-2.5,9.5-6.1C1411,124.3,1410.8,120,1408.7,116.6z M1130.8,108.5l25.2,38.4c2.1,3.2,5.5,5.1,9.3,5.1c0,0,0,0,0.1,0
		c3.8,0,7.2-1.9,9.3-5l25.2-38.4c2.2-3.4,2.4-7.8,0.5-11.3c-1.9-3.6-5.5-5.9-9.6-6.1l-14.5,0c4.2-22.5,16-42.9,33.4-57.8
		c17.5-15,39.5-23.6,60.3-23.6c13.4,0,27.6,3.7,41,10.6c6.4,3.4,12.5,7.4,18.1,12.1c-0.4-0.4,0.1,0.1,0,0c0,0,0,0,0,0
		c0.6,0.6,1.6,1.3,1.4,1.2c1.7,1.2,3.8,2,6,2c5.6,0,10.2-4.6,10.2-10.2c0-3-1.3-5.8-3.4-7.6l0,0c0,0-0.1-0.1-0.1-0.1
		c-0.1-0.1-0.1-0.1-0.2-0.2c-6.9-5.9-14.5-11-22.5-15.1c-16.2-8.4-33.6-12.9-50.4-12.9c-25.7,0-52.5,10.4-73.6,28.5
		c-21.9,18.8-36.3,44.7-40.8,73.2l-15.6,0l-0.2,0c-4,0.2-7.7,2.5-9.5,6.1C1128.5,100.8,1128.6,105.1,1130.8,108.5z M1211.5,194
		c0.1,0.2,0.2,0.4,0.3,0.5C1211.7,194.3,1211.6,194.2,1211.5,194z M1212,195C1212,195,1212.1,195,1212,195
		C1212.1,195,1212,195,1212,195z"/>
	<path class="st0" d="M1269.7-70.5c-59.7,0-113.4,28.1-147.2,77.1c-33.7,48.8-41.5,110.5-20.9,165.1c5.8,15.1,14.3,29,25,41.1
		l0.1,0.1l138.2,162.4c0.2,0.3,0.5,0.5,0.7,0.7c1.3,1.1,2.9,1.6,4.6,1.5c1.7-0.1,3.2-0.9,4.3-2.2l138.3-162.4
		c11.9-13.8,20-27.2,25-40.9l0.1-0.2c20.6-54.6,12.8-116.3-20.9-165.1C1383.1-42.4,1329.4-70.5,1269.7-70.5z M1457.5,179.1
		c-5.8,16.2-15.2,31.8-28.8,47.5l-138.2,162.3c-4.6,5.5-11.4,9-18.6,9.5c-0.7,0.1-1.5,0.1-2.3,0.1c-6.5,0-12.7-2.3-17.6-6.5
		c-1.1-0.9-2.2-2-3.1-3.1l-138.1-162.3c-12.4-14-22.1-30-28.8-47.4c-23.1-61.1-14.4-130.1,23.3-184.6
		c37.8-54.8,97.8-86.2,164.5-86.2c66.7,0,126.7,31.4,164.5,86.2C1471.8,49.1,1480.6,118.1,1457.5,179.1z"/>
</g>
<g>
	<g id="XMLID_3_">
		<g>
			<path class="st1" d="M-594.7,770.7c37.6,54.5,46.4,123.4,23.3,184.4c-5.8,16.2-15.2,31.8-28.8,47.5l-138.2,162.3
				c-4.6,5.5-11.4,9-18.6,9.5c-0.7,0.1-1.5,0.1-2.2,0.1c-6.5,0-12.7-2.3-17.6-6.5c-1.1-1-2.1-2-3.1-3.1l-138.1-162.2
				c-12.4-14-22.1-30-28.8-47.4c-23.1-61.1-14.4-130.1,23.2-184.5c37.8-54.8,97.8-86.2,164.5-86.2S-632.5,715.9-594.7,770.7z
				 M-591,947.7c20.6-54.6,12.8-116.3-20.9-165.1c-33.8-49-87.5-77.1-147.2-77.1c-59.7,0-113.4,28.1-147.2,77.1
				c-33.7,48.8-41.6,110.5-20.9,165.1c5.8,15.1,14.2,29,25,41.1l0.1,0.1l138.2,162.4c0.2,0.3,0.5,0.5,0.7,0.7
				c1.3,1.1,2.9,1.6,4.6,1.5c1.7-0.1,3.2-0.9,4.3-2.2L-616,988.9c11.9-13.8,20-27.2,25-41L-591,947.7z"/>
			<path class="st1" d="M-620.2,892.6c2.2,3.4,2.3,7.7,0.5,11.3c-1.9,3.6-5.5,5.9-9.5,6.1l-0.2,0H-645
				c-4.5,28.5-18.9,54.4-40.8,73.2c-21.1,18.1-47.9,28.5-73.6,28.5c-16.8,0-34.2-4.5-50.4-12.9c-16.6-8.6-31.2-21.2-42.2-36.2
				c-1.6-2.2-2.3-4.9-1.8-7.6c0.4-2.7,1.9-5,4.1-6.6c4.5-3.3,10.9-2.3,14.2,2.2c9.2,12.5,21.4,23,35.2,30.2
				c13.3,7,27.5,10.6,41,10.6c20.8,0,42.8-8.6,60.3-23.6c17.4-14.9,29.1-35.3,33.3-57.8h-14.5c-4-0.2-7.7-2.5-9.6-6.1
				c-1.9-3.5-1.7-7.9,0.5-11.3l25.2-38.4c2.1-3.2,5.6-5,9.3-5c0,0,0,0,0.1,0c3.8,0,7.3,1.9,9.3,5.1L-620.2,892.6z"/>
			<path class="st1" d="M-666.4,814.9c1.6,2.2,2.3,4.9,1.9,7.6c-0.4,2.7-1.9,5-4.1,6.6c-4.5,3.3-10.9,2.3-14.2-2.2
				c-9.2-12.5-21.4-23-35.2-30.2c-13.3-7-27.5-10.6-40.9-10.6c-20.8,0-42.8,8.6-60.3,23.6c-17.4,14.9-29.1,35.3-33.3,57.8h14.5
				c4.1,0.2,7.7,2.5,9.6,6.1c1.8,3.5,1.7,7.9-0.5,11.3l-25.2,38.4c-2.1,3.2-5.5,5-9.3,5c0,0,0,0-0.1,0c-3.8,0-7.3-1.9-9.3-5.1
				l-25.2-38.4c-2.2-3.4-2.3-7.7-0.5-11.3c1.9-3.6,5.5-5.9,9.5-6.1l0.3,0h15.4c4.5-28.5,18.9-54.4,40.8-73.2
				c21.1-18.1,47.9-28.5,73.6-28.5c16.8,0,34.2,4.5,50.4,12.9C-692,787.4-677.4,799.9-666.4,814.9z"/>
			<path class="st1" d="M-710.7,845.1l2.2,2.5l-15.3,14.9l-2.4-2.6c-7.8-8.2-17.2-12.2-28.9-12.2c-7.7,0-14.7,1.7-20.8,5.1
				c-6.1,3.4-11,8.2-14.4,14.1c-3.5,6-5.2,12.8-5.2,20.2s1.8,14.2,5.2,20.2c3.4,6,8.3,10.7,14.4,14.1c6.1,3.4,13.1,5.1,20.8,5.1
				c11.6,0,21-4,28.9-12.3l2.4-2.6l15.3,14.9l-2.2,2.5c-5.4,6.1-12.1,10.8-19.9,14c-7.7,3.1-16.2,4.7-25.3,4.7
				c-11.7,0-22.5-2.6-31.9-7.9c-9.5-5.2-17.1-12.5-22.5-21.7c-5.4-9.2-8.2-19.6-8.2-31.1s2.7-21.9,8.2-31.1
				c5.4-9.2,13-16.5,22.6-21.7c9.5-5.2,20.3-7.8,32-7.8c9.1,0,17.6,1.6,25.2,4.6C-722.8,834.3-716.1,839-710.7,845.1z"/>
		</g>
		<g>
			<path class="st2" d="M-759.1,705.5c-59.7,0-113.4,28.1-147.2,77.1c-33.7,48.8-41.6,110.5-20.9,165.1c5.8,15.1,14.2,29,25,41.1
				l0.1,0.1l138.2,162.4c0.2,0.3,0.5,0.5,0.7,0.7c1.3,1.1,2.9,1.6,4.6,1.5c1.7-0.1,3.2-0.9,4.3-2.2L-616,988.9
				c11.9-13.8,20-27.2,25-41l0.1-0.2c20.6-54.6,12.8-116.3-20.9-165.1C-645.8,733.6-699.4,705.5-759.1,705.5z"/>
			<path class="st2" d="M-863.5,928.4C-863.6,928.4-863.6,928.4-863.5,928.4c-3.8,0-7.3-1.9-9.4-5.1l-25.2-38.4
				c-2.2-3.4-2.3-7.7-0.5-11.3c1.9-3.6,5.5-5.9,9.5-6.1l0.3,0h15.4c4.5-28.5,18.9-54.4,40.8-73.2c21.1-18.1,47.9-28.5,73.6-28.5
				c16.8,0,34.2,4.5,50.4,12.9c16.6,8.6,31.2,21.2,42.2,36.2c1.6,2.2,2.3,4.9,1.9,7.6c-0.4,2.7-1.9,5-4.1,6.6
				c-4.5,3.3-10.9,2.3-14.2-2.2c-9.2-12.5-21.4-23-35.2-30.2c-13.3-7-27.5-10.6-40.9-10.6c-20.8,0-42.8,8.6-60.3,23.6
				c-17.4,14.9-29.1,35.3-33.3,57.8h14.5c4.1,0.2,7.7,2.5,9.6,6.1c1.8,3.5,1.7,7.9-0.5,11.3l-25.2,38.4
				C-856.3,926.5-859.8,928.4-863.5,928.4z"/>
			<path class="st2" d="M-790.3,907.4c3.4,6,8.3,10.7,14.4,14.1c6.1,3.4,13.1,5.1,20.8,5.1c11.6,0,21-4,28.9-12.3l2.4-2.6l15.3,14.9
				l-2.2,2.5c-5.4,6.1-12.1,10.8-19.9,14c-7.7,3.1-16.2,4.7-25.3,4.7c-11.7,0-22.5-2.6-31.9-7.9c-9.5-5.2-17.1-12.5-22.5-21.7
				c-5.4-9.2-8.2-19.6-8.2-31.1s2.7-21.9,8.2-31.1c5.4-9.2,13-16.5,22.6-21.7c9.5-5.2,20.3-7.8,32-7.8c9.1,0,17.6,1.6,25.2,4.6
				c7.7,3.1,14.4,7.8,19.8,13.9l2.2,2.5l-15.3,14.9l-2.4-2.6c-7.8-8.2-17.2-12.2-28.9-12.2c-7.7,0-14.7,1.7-20.8,5.1
				c-6.1,3.4-11,8.2-14.4,14.1c-3.5,6-5.2,12.8-5.2,20.2S-793.8,901.4-790.3,907.4z"/>
			<path class="st2" d="M-619.7,903.9c-1.9,3.6-5.5,5.9-9.5,6.1l-0.2,0H-645c-4.5,28.5-18.9,54.4-40.8,73.2
				c-21.1,18.1-47.9,28.5-73.6,28.5c-16.8,0-34.2-4.5-50.4-12.9c-16.6-8.6-31.2-21.2-42.2-36.2c-1.6-2.2-2.3-4.9-1.8-7.6
				c0.4-2.7,1.9-5,4.1-6.6c4.5-3.3,10.9-2.3,14.2,2.2c9.2,12.5,21.4,23,35.2,30.2c13.3,7,27.5,10.6,41,10.6
				c20.8,0,42.8-8.6,60.3-23.6c17.4-14.9,29.1-35.3,33.3-57.8h-14.5c-4-0.2-7.7-2.5-9.6-6.1c-1.9-3.5-1.7-7.9,0.5-11.3l25.2-38.4
				c2.1-3.2,5.6-5,9.3-5c0,0,0,0,0.1,0c3.8,0,7.3,1.9,9.3,5.1l25.2,38.4C-618.1,896-617.9,900.3-619.7,903.9z"/>
			<path class="st2" d="M-571.3,955.1c-5.8,16.2-15.2,31.8-28.8,47.5l-138.2,162.3c-4.6,5.5-11.4,9-18.6,9.5
				c-0.7,0.1-1.5,0.1-2.2,0.1c-6.5,0-12.7-2.3-17.6-6.5c-1.1-1-2.1-2-3.1-3.1l-138.1-162.2c-12.4-14-22.1-30-28.8-47.4
				c-23.1-61.1-14.4-130.1,23.2-184.5c37.8-54.8,97.8-86.2,164.5-86.2s126.7,31.4,164.5,86.2C-557,825.1-548.3,894.1-571.3,955.1z"
				/>
		</g>
	</g>
</g>
<g>
	<g>
		<path class="st0" d="M302.9,318.7H183.8c-5.5,0-10,4.5-10,10v11.3c0,4.8,3.5,8.9,8,9.8l11.9,98.8c0,0.2,0,0.3,0.1,0.5
			c0,0.1,0,0.3,0.1,0.4c0,0.2,0.1,0.3,0.1,0.5c0,0.1,0.1,0.3,0.1,0.4c0,0.1,0.1,0.3,0.1,0.4c0.1,0.2,0.1,0.3,0.2,0.5
			c0.1,0.1,0.1,0.2,0.2,0.4c0.1,0.2,0.1,0.3,0.2,0.5c0.1,0.1,0.1,0.2,0.2,0.3c0.1,0.2,0.2,0.3,0.3,0.5c0.1,0.1,0.1,0.2,0.2,0.3
			c0.1,0.2,0.2,0.3,0.3,0.5c0.1,0.1,0.1,0.2,0.2,0.2c0.1,0.2,0.3,0.3,0.4,0.5c0.1,0.1,0.1,0.1,0.2,0.2c0.1,0.2,0.3,0.3,0.4,0.4
			c0.1,0.1,0.1,0.1,0.2,0.2c0.2,0.1,0.3,0.3,0.5,0.4c0.1,0.1,0.2,0.1,0.2,0.2c0.2,0.1,0.3,0.2,0.5,0.4c0.1,0.1,0.2,0.1,0.3,0.2
			c0.2,0.1,0.3,0.2,0.5,0.3c0.1,0.1,0.2,0.1,0.3,0.1c0.2,0.1,0.3,0.2,0.5,0.2c0.1,0,0.3,0.1,0.4,0.1c0.2,0.1,0.3,0.1,0.5,0.2
			c0.2,0,0.3,0.1,0.5,0.1c0.1,0,0.3,0.1,0.4,0.1c0.2,0,0.4,0.1,0.7,0.1c0.1,0,0.2,0,0.3,0c0.3,0,0.6,0,1,0h0H283h0
			c0.1,0,0.1,0,0.2,0c0.3,0,0.5,0,0.8,0c0.2,0,0.4-0.1,0.5-0.1c0.1,0,0.3,0,0.4-0.1c0.2,0,0.4-0.1,0.7-0.2c0.1,0,0.2,0,0.2-0.1
			c0.3-0.1,0.5-0.2,0.8-0.3c0,0,0.1,0,0.1,0c0.3-0.1,0.6-0.2,0.8-0.4c0,0,0,0,0,0c3-1.5,5.1-4.4,5.5-7.9c0-0.1,0-0.1,0-0.2
			l11.9-98.8c4.6-0.9,8-5,8-9.8v-11.3C312.9,323.2,308.4,318.7,302.9,318.7z M182.5,328.7c0-0.7,0.6-1.3,1.3-1.3h119.1
			c0.7,0,1.3,0.6,1.3,1.3v11.3c0,0.7-0.6,1.3-1.3,1.3H183.8c-0.7,0-1.3-0.6-1.3-1.3V328.7z M203.7,449.1c-0.7,0-1.2-0.5-1.3-1.2
			l-1.1-12.7h84.2l-1.1,12.6l0,0.1c-0.1,0.7-0.6,1.2-1.3,1.2H203.7z M286.9,426.4h-87.1l-9.2-76.3h105.4L286.9,426.4z"/>
		<path class="st0" d="M243.4,421c4,0,7.2-3.2,7.2-7.2v-51c0-4-3.2-7.2-7.2-7.2s-7.2,3.2-7.2,7.2v51
			C236.1,417.7,239.4,421,243.4,421z"/>
		<path class="st0" d="M205.6,363.5l4.4,50.8c0.3,3.7,3.5,6.6,7.2,6.6c0.2,0,0.5,0,0.7,0c1.9-0.2,3.6-1.1,4.8-2.5
			c1.2-1.5,1.8-3.3,1.7-5.3l-4.4-50.8c-0.2-1.9-1.1-3.7-2.6-4.9c-1.5-1.2-3.3-1.8-5.2-1.6c-1.9,0.2-3.7,1.1-4.9,2.6
			C206,359.7,205.4,361.5,205.6,363.5z M217.2,412.1C217.2,412.1,217.2,412.1,217.2,412.1C217.2,412.1,217.2,412.1,217.2,412.1v4.4
			V412.1z"/>
		<path class="st0" d="M268.8,420.8c0.2,0,0.4,0,0.7,0c3.7,0,6.9-2.9,7.2-6.6l4.4-50.8c0.2-1.9-0.4-3.8-1.7-5.3
			c-1.2-1.5-3-2.4-4.9-2.5c-1.9-0.2-3.8,0.4-5.3,1.6c-1.5,1.2-2.4,3-2.6,4.9l-4.4,50.8C262,417,264.9,420.5,268.8,420.8z"/>
	</g>
</g>
<g>
	<path class="st0" d="M323.8,144.6l-14.6-22.3c-1.2-1.8-3.2-3-5.4-3c0,0,0,0,0,0c-2.2,0-4.2,1.1-5.4,2.9l-14.6,22.3
		c-1.3,2-1.4,4.5-0.3,6.5c1.1,2.1,3.2,3.4,5.6,3.5l8.4,0c-2.4,13-9.3,24.8-19.3,33.5c-10.2,8.7-22.9,13.7-35,13.7
		c-7.8,0-16-2.1-23.7-6.2c-3.7-1.9-7.2-4.3-10.5-7c0.2,0.2,0,0,0,0c0,0,0,0,0,0c-0.3-0.4-0.9-0.8-0.8-0.7c-1-0.7-2.2-1.1-3.5-1.1
		c-3.3,0-5.9,2.6-5.9,5.9c0,1.8,0.8,3.3,2,4.4l0,0c0,0,0.1,0,0.1,0.1c0,0,0.1,0.1,0.1,0.1c4,3.4,8.4,6.4,13,8.8
		c9.4,4.9,19.5,7.5,29.2,7.5c14.9,0,30.4-6,42.6-16.5c12.7-10.9,21-25.9,23.6-42.4l9,0l0.1,0c2.3-0.1,4.4-1.4,5.5-3.5
		C325.1,149.1,325,146.6,323.8,144.6z M162.8,139.9l14.6,22.3c1.2,1.8,3.2,3,5.4,3c0,0,0,0,0,0c2.2,0,4.2-1.1,5.4-2.9l14.6-22.3
		c1.3-2,1.4-4.5,0.3-6.5c-1.1-2.1-3.2-3.4-5.6-3.5l-8.4,0c2.4-13,9.3-24.8,19.3-33.5c10.2-8.7,22.9-13.7,35-13.7
		c7.8,0,16,2.1,23.7,6.2c3.7,1.9,7.2,4.3,10.5,7c-0.2-0.2,0,0,0,0c0,0,0,0,0,0c0.3,0.4,0.9,0.8,0.8,0.7c1,0.7,2.2,1.1,3.5,1.1
		c3.3,0,5.9-2.6,5.9-5.9c0-1.8-0.8-3.3-2-4.4l0,0c0,0-0.1,0-0.1-0.1c0,0-0.1-0.1-0.1-0.1c-4-3.4-8.4-6.4-13-8.8
		c-9.4-4.9-19.5-7.5-29.2-7.5c-14.9,0-30.4,6-42.6,16.5c-12.7,10.9-21,25.9-23.6,42.4l-9,0l-0.1,0c-2.3,0.1-4.4,1.4-5.5,3.5
		C161.4,135.4,161.5,137.9,162.8,139.9z M209.5,189.4c0.1,0.1,0.1,0.2,0.2,0.3C209.7,189.6,209.6,189.5,209.5,189.4z M209.9,190
		C209.9,190,209.9,190,209.9,190C209.9,190,209.9,190,209.9,190z"/>
	<path class="st0" d="M243.3,36.2c-34.6,0-65.7,16.3-85.3,44.7c-19.5,28.3-24.1,64.1-12.1,95.7c3.4,8.8,8.3,16.8,14.5,23.8l0.1,0.1
		l80.1,94.1c0.1,0.2,0.3,0.3,0.4,0.4c0.7,0.6,1.7,0.9,2.7,0.9c1-0.1,1.9-0.5,2.5-1.3l80.1-94.1c6.9-8,11.6-15.7,14.5-23.7l0-0.1
		c12-31.6,7.4-67.4-12.1-95.7C309,52.4,277.9,36.2,243.3,36.2z M352.1,180.8c-3.4,9.4-8.8,18.4-16.7,27.5l-80.1,94
		c-2.7,3.2-6.6,5.2-10.8,5.5c-0.4,0-0.9,0-1.3,0.1c-3.7,0-7.4-1.3-10.2-3.8c-0.6-0.5-1.2-1.2-1.8-1.8l-80-94
		c-7.2-8.1-12.8-17.4-16.7-27.5c-13.4-35.4-8.3-75.4,13.5-106.9C169.9,42.2,204.6,24,243.3,24c38.6,0,73.4,18.2,95.3,49.9
		C360.4,105.5,365.4,145.4,352.1,180.8z"/>
</g>
</svg>
