<?xml version="1.0" standalone="no"?>
<!DOCTYPE svg PUBLIC "-//W3C//DTD SVG 20010904//EN"
 "http://www.w3.org/TR/2001/REC-SVG-20010904/DTD/svg10.dtd">
<svg version="1.0" xmlns="http://www.w3.org/2000/svg"
 width="500.000000pt" height="500.000000pt" viewBox="0 0 500.000000 500.000000"
 preserveAspectRatio="xMidYMid meet">
<metadata>
Created by potrace 1.11, written by Peter Selinger 2001-2013
</metadata>
<g transform="translate(0.000000,500.000000) scale(0.100000,-0.100000)"
fill="#000000" stroke="none">
<path d="M2336 4860 c-913 -82 -1634 -772 -1762 -1686 -20 -143 -15 -462 9
-589 51 -269 136 -483 265 -670 64 -94 1389 -1653 1448 -1704 109 -96 272
-103 395 -17 46 32 204 211 726 826 367 432 695 823 729 869 269 364 372 905
269 1416 -129 638 -585 1188 -1181 1424 -269 106 -611 156 -898 131z m477
-370 c326 -64 575 -197 813 -435 242 -241 386 -509 454 -843 80 -398 -12 -854
-229 -1136 -115 -149 -1345 -1586 -1352 -1579 -50 57 -1331 1568 -1350 1593
-174 235 -271 621 -240 949 21 225 67 389 166 589 84 170 166 283 310 428 263
263 576 412 965 458 91 11 359 -3 463 -24z"/>
<path d="M2365 4100 c-238 -37 -485 -163 -658 -334 -134 -133 -260 -345 -309
-523 l-23 -83 -55 0 c-67 -1 -126 -26 -163 -69 -33 -40 -41 -67 -35 -134 4
-48 17 -71 144 -262 76 -115 152 -219 167 -230 43 -31 150 -28 196 4 21 15 86
103 169 230 122 186 136 211 140 258 2 29 2 63 -2 77 -15 61 -104 125 -174
126 -40 0 -39 5 18 125 93 194 261 351 455 426 267 103 496 66 755 -122 61
-44 81 -53 125 -57 136 -11 225 118 166 241 -50 104 -343 268 -556 312 -97 20
-278 27 -360 15z"/>
<path d="M3427 3316 c-66 -24 -57 -13 -225 -269 -129 -196 -142 -227 -128
-302 14 -71 94 -135 171 -135 21 0 35 -5 35 -12 0 -26 -67 -165 -109 -227 -56
-82 -150 -176 -230 -231 -284 -192 -614 -186 -890 16 -125 91 -195 104 -269
47 -35 -26 -71 -92 -72 -128 0 -76 42 -132 163 -213 139 -94 291 -158 445
-188 95 -18 279 -18 374 0 283 54 551 223 729 458 72 97 161 275 193 388 l24
85 75 5 c61 5 81 11 111 33 49 38 70 81 70 148 1 54 -1 58 -137 266 -76 116
-146 218 -157 228 -21 19 -85 44 -115 44 -11 0 -37 -6 -58 -13z"/>
</g>
</svg>
